<svg width="847" height="334" viewBox="0 0 847 334" fill="none" xmlns="http://www.w3.org/2000/svg">
<path fill-rule="evenodd" clip-rule="evenodd" d="M201.5 51.5C202.919 52.451 204.585 52.784 206.5 52.5C206.5 43.5 206.5 34.5 206.5 25.5C210.685 9.977 220.852 1.644 237 0.5C253.968 0.312 264.801 8.312 269.5 24.5C269.176 28.555 269.509 32.555 270.5 36.5C271.107 36.376 271.44 36.043 271.5 35.5C272.5 35.167 273.167 34.5 273.5 33.5C299.414 13.394 327.414 10.061 357.5 23.5C361.784 12.716 369.45 5.55 380.5 2C409.833 1.333 439.167 1.333 468.5 2C472.446 3.306 476.112 5.139 479.5 7.5C482.888 5.139 486.554 3.306 490.5 2C517.833 1.333 545.167 1.333 572.5 2C577.312 2.989 581.479 5.156 585 8.5C588.968 5.098 593.468 2.598 598.5 1C617.938 -2.205 631.105 5.295 638 23.5C638.5 48.164 638.667 72.831 638.5 97.5C648.172 97.334 657.839 97.5 667.5 98C672.141 98.819 676.475 100.486 680.5 103C695.841 115.632 698.507 130.465 688.5 147.5C701.776 150.39 713.609 156.057 724 164.5C729.798 158.682 736.632 154.515 744.5 152C769.833 151.333 795.167 151.333 820.5 152C832.507 154.902 840.674 162.069 845 173.5C849.257 191.816 843.091 205.316 826.5 214C835.498 227.243 835.831 240.743 827.5 254.5C831.491 257.497 835.491 260.497 839.5 263.5C847.903 275.581 848.736 288.248 842 301.5C836.409 309.423 828.909 314.589 819.5 317C793.791 317.815 768.124 317.648 742.5 316.5C734.474 313.653 728.141 308.653 723.5 301.5C714.583 308.905 704.583 314.405 693.5 318C669.491 323.958 648.658 318.458 631 301.5C629.289 306.931 626.123 311.265 621.5 314.5C619.363 315.787 617.03 316.621 614.5 317C601.833 317.667 589.167 317.667 576.5 317C568.723 314.22 564.223 308.72 563 300.5C551.16 309.115 537.993 314.615 523.5 317C508.5 317.667 493.5 317.667 478.5 317C474.111 315.971 470.111 314.138 466.5 311.5C444.78 323.591 428.446 318.591 417.5 296.5C409.5 295.167 401.5 295.167 393.5 296.5C392.754 297.736 392.421 299.07 392.5 300.5C390.114 304.397 387.114 307.897 383.5 311C370.547 319.357 357.547 319.523 344.5 311.5C325.678 322.258 309.845 318.925 297 301.5C283.98 318.863 267.98 322.196 249 311.5C246.046 313.393 242.879 314.893 239.5 316C220.361 320.764 207.361 313.931 200.5 295.5C192.833 294.167 185.167 294.167 177.5 295.5C175.241 302.26 171.241 307.76 165.5 312C149.163 321.136 134.663 318.969 122 305.5C114.859 292.674 114.692 279.674 121.5 266.5C121.167 266.167 120.833 265.833 120.5 265.5C104.493 275.036 87.159 278.702 68.5 276.5C68.903 287.231 68.403 297.898 67 308.5C65.527 312.779 63.527 316.779 61 320.5C46.447 335.409 30.28 337.409 12.5 326.5C6.87752 320.929 3.04422 314.262 1.00003 306.5C0.333325 265.833 0.333325 225.167 1.00003 184.5C5.76553 160.126 18.599 141.293 39.5 128C74.544 110.438 106.544 114.605 135.5 140.5C135.56 141.043 135.893 141.376 136.5 141.5C137.5 102.506 137.833 63.506 137.5 24.5C140.416 13.746 147.083 6.246 157.5 2C176.516 -2.981 190.349 3.186 199 20.5C200.093 30.936 200.927 41.27 201.5 51.5Z" fill="#060606"/>
<path fill-rule="evenodd" clip-rule="evenodd" d="M186.5 66.5C197.654 67.495 208.988 67.828 220.5 67.5C221.837 68.315 222.837 69.482 223.5 71C224.793 71.49 226.127 71.657 227.5 71.5C227.333 55.163 227.5 38.83 228 22.5C228.655 20.372 229.489 18.372 230.5 16.5C237.81 13.48 244.81 14.313 251.5 19C252.667 20.833 253.833 22.667 255 24.5C255.667 63.833 255.667 103.167 255 142.5C253.389 146.275 250.889 149.275 247.5 151.5C246.539 149.735 246.205 147.735 246.5 145.5C241.401 145.825 236.401 145.325 231.5 144C230.789 142.745 229.956 141.579 229 140.5C228.5 125.504 228.333 110.504 228.5 95.5C213.5 95.5 198.5 95.5 183.5 95.5C183.181 97.75 183.681 99.75 185 101.5C185.5 114.829 185.667 128.163 185.5 141.5C184.821 145.888 182.488 148.888 178.5 150.5C177.837 148.958 177.17 147.291 176.5 145.5C169.481 148.047 163.814 146.381 159.5 140.5C158.189 99.157 158.189 58.157 159.5 17.5C171.012 12.171 179.845 15.171 186 26.5C186.5 39.829 186.667 53.163 186.5 66.5Z" fill="#FCFBFB"/>
<path fill-rule="evenodd" clip-rule="evenodd" d="M602.5 15.5C612.36 13.35 619.527 16.683 624 25.5C624.5 40.496 624.667 55.496 624.5 70.5C614.559 71.804 605.893 75.804 598.5 82.5C597.107 61.643 597.273 40.643 599 19.5C601.071 18.897 602.238 17.564 602.5 15.5Z" fill="#FBFBFB"/>
<path fill-rule="evenodd" clip-rule="evenodd" d="M470.5 46.5C470.5 44.833 470.5 43.167 470.5 41.5C460.808 41.861 451.141 42.528 441.5 43.5C441.194 46.385 441.527 49.052 442.5 51.5C442.667 81.835 442.5 112.168 442 142.5C440.726 145.936 438.559 148.603 435.5 150.5C435.5 148.833 435.5 147.167 435.5 145.5C431.181 146.249 426.848 146.415 422.5 146C419.898 143.869 417.232 142.035 414.5 140.5C414.5 108.167 414.5 75.833 414.5 43.5C404.78 43.808 395.113 43.474 385.5 42.5C382.417 40.583 380.25 37.916 379 34.5C379.274 28.638 379.774 22.971 380.5 17.5C381.473 17.013 382.473 16.513 383.5 16C410.5 15.333 437.5 15.333 464.5 16C475.228 19.284 479.395 26.451 477 37.5C475.357 40.961 473.19 43.961 470.5 46.5Z" fill="#FCFBFB"/>
<path fill-rule="evenodd" clip-rule="evenodd" d="M576.5 45.5C575.596 44.791 575.263 43.791 575.5 42.5C573.073 42.523 570.74 43.023 568.5 44C549.836 44.5 531.17 44.667 512.5 44.5C513.151 47.803 514.818 50.47 517.5 52.5C517.5 57.167 517.5 61.833 517.5 66.5C529.505 66.333 541.505 66.5 553.5 67C567.088 73.366 570.254 83.199 563 96.5C561.961 97.71 560.794 98.71 559.5 99.5C558.837 97.958 558.17 96.291 557.5 94.5C543.215 95.483 528.882 95.816 514.5 95.5C514.018 98.831 515.018 101.497 517.5 103.5C517.5 105.167 517.5 106.833 517.5 108.5C517.608 110.514 516.942 112.18 515.5 113.5C509.611 116.392 505.944 121.059 504.5 127.5C505.338 134.174 509.005 136.674 515.5 135C519.283 133.942 522.617 132.109 525.5 129.5C526.433 132.722 528.6 134.388 532 134.5C535.655 133.949 538.989 132.615 542 130.5C542.667 132.5 542.667 134.5 542 136.5C538.956 139.051 535.789 141.384 532.5 143.5C520.829 143.667 509.162 143.5 497.5 143C496.335 141.916 495.002 141.083 493.5 140.5C492.784 138.518 491.617 136.851 490 135.5C489.333 97.167 489.333 58.833 490 20.5C490.513 19.473 491.013 18.473 491.5 17.5C491.918 16.778 492.584 16.278 493.5 16C518.833 15.333 544.167 15.333 569.5 16C579.48 19.79 583.313 26.956 581 37.5C580.262 40.648 578.762 43.315 576.5 45.5Z" fill="#FBFBFA"/>
<path fill-rule="evenodd" clip-rule="evenodd" d="M230.5 16.5C229.489 18.372 228.655 20.372 228 22.5C227.5 38.83 227.333 55.163 227.5 71.5C226.127 71.657 224.793 71.49 223.5 71C222.837 69.482 221.837 68.315 220.5 67.5C220.5 54.167 220.5 40.833 220.5 27.5C221.78 21.923 225.113 18.256 230.5 16.5Z" fill="#E4DFC4"/>
<path fill-rule="evenodd" clip-rule="evenodd" d="M602.5 15.5C602.238 17.564 601.071 18.897 599 19.5C597.273 40.643 597.107 61.643 598.5 82.5C595.453 85.545 592.787 88.878 590.5 92.5C589.503 71.34 589.169 50.007 589.5 28.5C591.5 21.833 595.833 17.5 602.5 15.5Z" fill="#E5E0C6"/>
<path fill-rule="evenodd" clip-rule="evenodd" d="M269.5 24.5C270.167 28.167 270.833 31.833 271.5 35.5C271.44 36.043 271.107 36.376 270.5 36.5C269.509 32.555 269.176 28.555 269.5 24.5Z" fill="#445465"/>
<path fill-rule="evenodd" clip-rule="evenodd" d="M206.5 25.5C206.5 34.5 206.5 43.5 206.5 52.5C204.585 52.784 202.919 52.451 201.5 51.5C202.833 51.5 204.167 51.5 205.5 51.5C205.174 42.651 205.507 33.984 206.5 25.5Z" fill="#597881"/>
<path fill-rule="evenodd" clip-rule="evenodd" d="M326.5 31.5C330.167 31.5 333.833 31.5 337.5 31.5C371.071 41.304 386.238 63.637 383 98.5C381.453 106.639 378.62 114.306 374.5 121.5C373.016 117.946 372.349 114.112 372.5 110C377.381 94.829 374.881 79.329 365 63.5C362.395 59.94 359.229 56.94 355.5 54.5C355.167 54.833 354.833 55.167 354.5 55.5C355.763 58.603 357.263 61.603 359 64.5C359.497 67.146 359.664 69.813 359.5 72.5C359.5 72.833 359.5 73.167 359.5 73.5C345.391 50.07 325.224 42.737 299 51.5C298.5 51.167 298 50.833 297.5 50.5C304.057 39.39 313.724 33.057 326.5 31.5Z" fill="#6EC584"/>
<path fill-rule="evenodd" clip-rule="evenodd" d="M576.5 45.5C574.454 48.366 571.787 50.533 568.5 52C551.503 52.5 534.503 52.667 517.5 52.5C514.818 50.47 513.151 47.803 512.5 44.5C531.17 44.667 549.836 44.5 568.5 44C570.74 43.023 573.073 42.523 575.5 42.5C575.263 43.791 575.596 44.791 576.5 45.5Z" fill="#DCD7BD"/>
<path fill-rule="evenodd" clip-rule="evenodd" d="M470.5 46.5C468.535 48.488 466.202 49.988 463.5 51C456.508 51.5 449.508 51.666 442.5 51.5C441.527 49.052 441.194 46.385 441.5 43.5C451.141 42.528 460.808 41.861 470.5 41.5C470.5 43.167 470.5 44.833 470.5 46.5Z" fill="#E8E2C9"/>
<path fill-rule="evenodd" clip-rule="evenodd" d="M380.5 17.5C379.774 22.971 379.274 28.638 379 34.5C380.25 37.916 382.417 40.583 385.5 42.5C395.113 43.474 404.78 43.808 414.5 43.5C414.5 75.833 414.5 108.167 414.5 140.5C417.232 142.035 419.898 143.869 422.5 146C426.848 146.415 431.181 146.249 435.5 145.5C435.5 147.167 435.5 148.833 435.5 150.5C426.316 156.572 417.816 155.572 410 147.5C408.725 145.283 407.725 142.949 407 140.5C406.5 110.835 406.333 81.169 406.5 51.5C397.827 51.666 389.16 51.5 380.5 51C369.958 43.455 367.792 33.955 374 22.5C375.926 20.461 378.093 18.794 380.5 17.5Z" fill="#E3DDC1"/>
<path fill-rule="evenodd" clip-rule="evenodd" d="M326.5 57.5C332.275 59.106 337.608 61.606 342.5 65C347.157 69.803 351.157 74.97 354.5 80.5C356.07 88.732 356.903 97.065 357 105.5C360.534 107.522 362.034 110.522 361.5 114.5C359.84 124.82 354.173 131.82 344.5 135.5C339.946 135.745 335.446 135.412 331 134.5C316.448 143.246 304.448 140.579 295 126.5C294.503 124.19 294.337 121.857 294.5 119.5C293.392 115.869 291.226 112.869 288 110.5C286.851 107.607 286.351 104.607 286.5 101.5C288.558 99.157 290.558 96.824 292.5 94.5C290.576 91.391 289.242 88.058 288.5 84.5C290.426 71.242 297.76 62.575 310.5 58.5C315.797 57.725 321.13 57.392 326.5 57.5Z" fill="#060503"/>
<path fill-rule="evenodd" clip-rule="evenodd" d="M589.5 28.5C589.169 50.007 589.503 71.34 590.5 92.5C590.217 93.289 589.717 93.956 589 94.5C588.17 72.329 588.337 50.329 589.5 28.5Z" fill="#989784"/>
<path fill-rule="evenodd" clip-rule="evenodd" d="M220.5 27.5C220.5 40.833 220.5 54.167 220.5 67.5C208.988 67.828 197.654 67.495 186.5 66.5C197.5 66.5 208.5 66.5 219.5 66.5C219.171 53.323 219.505 40.323 220.5 27.5Z" fill="#B7B6AF"/>
<path fill-rule="evenodd" clip-rule="evenodd" d="M151.5 143.5C150.502 106.004 150.168 68.337 150.5 30.5C151.117 30.611 151.617 30.944 152 31.5C153.008 67.827 153.841 104.16 154.5 140.5C155.243 103.619 155.576 66.953 155.5 30.5C152.628 27.346 152.961 24.68 156.5 22.5C157.827 62.537 157.827 102.537 156.5 142.5C157.032 144.741 158.365 146.241 160.5 147C159.737 147.944 158.737 148.444 157.5 148.5C155.461 146.787 153.461 145.121 151.5 143.5Z" fill="#E4DDBE"/>
<path fill-rule="evenodd" clip-rule="evenodd" d="M326.5 31.5C313.724 33.057 304.057 39.39 297.5 50.5C298 50.833 298.5 51.167 299 51.5C325.224 42.737 345.391 50.07 359.5 73.5C358.164 76.154 356.497 78.487 354.5 80.5C351.157 74.97 347.157 69.803 342.5 65C337.608 61.606 332.275 59.106 326.5 57.5C324.527 56.837 322.361 56.504 320 56.5C316.523 56.328 313.356 56.994 310.5 58.5C297.76 62.575 290.426 71.242 288.5 84.5C286.55 89.735 285.883 95.402 286.5 101.5C286.351 104.607 286.851 107.607 288 110.5C291.226 112.869 293.392 115.869 294.5 119.5C293.778 119.918 293.278 120.584 293 121.5C286.767 117.769 282.6 112.435 280.5 105.5C281.263 104.281 282.263 103.281 283.5 102.5C283.192 101.692 282.692 101.025 282 100.5C281.577 101.956 280.744 102.456 279.5 102C278.158 99.985 277.658 97.818 278 95.5C278.419 96.672 279.085 97.672 280 98.5C280.602 92.651 280.435 86.818 279.5 81C279.267 63.675 285.601 49.342 298.5 38C301.291 36.886 304.291 36.72 307.5 37.5C307.5 36.5 307.5 35.5 307.5 34.5C310.625 34.135 313.625 33.302 316.5 32C319.817 31.502 323.15 31.335 326.5 31.5Z" fill="#3FA86C"/>
<path fill-rule="evenodd" clip-rule="evenodd" d="M326.5 57.5C321.13 57.392 315.797 57.725 310.5 58.5C313.356 56.994 316.523 56.328 320 56.5C322.361 56.504 324.527 56.837 326.5 57.5Z" fill="#225939"/>
<path fill-rule="evenodd" clip-rule="evenodd" d="M361.5 114.5C362.034 110.522 360.534 107.522 357 105.5C356.903 97.065 356.07 88.732 354.5 80.5C356.497 78.487 358.164 76.154 359.5 73.5C359.5 73.167 359.5 72.833 359.5 72.5C360.302 71.048 360.802 69.382 361 67.5C363.777 70.718 365.777 74.385 367 78.5C367.92 88.593 367.42 98.593 365.5 108.5C364.5 108.5 363.5 108.5 362.5 108.5C362.795 110.735 362.461 112.735 361.5 114.5Z" fill="#298957"/>
<path fill-rule="evenodd" clip-rule="evenodd" d="M137.5 24.5C137.833 63.506 137.5 102.506 136.5 141.5C135.893 141.376 135.56 141.043 135.5 140.5C136.167 101.833 136.833 63.167 137.5 24.5Z" fill="#131F29"/>
<path fill-rule="evenodd" clip-rule="evenodd" d="M601.5 118.5C601.586 117.504 601.252 116.671 600.5 116C601.833 115.667 603.167 115.333 604.5 115C603.975 114.308 603.308 113.808 602.5 113.5C600.057 115.055 597.39 115.722 594.5 115.5C594.357 113.738 594.691 112.071 595.5 110.5C598.833 107.5 602.167 104.5 605.5 101.5C602.1 100.114 599.1 100.781 596.5 103.5C596.167 102.833 595.833 102.167 595.5 101.5C599.181 93.454 603.848 86.121 609.5 79.5C614.46 75.707 620.127 74.207 626.5 75C631.368 77.477 631.701 80.477 627.5 84C622.581 87.042 617.748 90.209 613 93.5C611.754 98.77 613.92 100.937 619.5 100C620.517 101.049 620.684 102.216 620 103.5C614.819 109.824 608.652 114.824 601.5 118.5Z" fill="#36A065"/>
<path fill-rule="evenodd" clip-rule="evenodd" d="M247.5 151.5C234.43 157.752 225.263 154.085 220 140.5C219.5 128.171 219.333 115.838 219.5 103.5C208.5 103.5 197.5 103.5 186.5 103.5C186.829 116.344 186.495 129.011 185.5 141.5C185.667 128.163 185.5 114.829 185 101.5C183.681 99.75 183.181 97.75 183.5 95.5C198.5 95.5 213.5 95.5 228.5 95.5C228.333 110.504 228.5 125.504 229 140.5C229.956 141.579 230.789 142.745 231.5 144C236.401 145.325 241.401 145.825 246.5 145.5C246.205 147.735 246.539 149.735 247.5 151.5Z" fill="#DFDBC4"/>
<path fill-rule="evenodd" clip-rule="evenodd" d="M288.5 84.5C289.242 88.058 290.576 91.391 292.5 94.5C290.558 96.824 288.558 99.157 286.5 101.5C285.883 95.402 286.55 89.735 288.5 84.5Z" fill="#7CBB95"/>
<path fill-rule="evenodd" clip-rule="evenodd" d="M329.5 91.5C340.663 89.071 347.997 93.071 351.5 103.5C346.736 101.73 341.736 100.73 336.5 100.5C333.385 101.019 330.385 101.019 327.5 100.5C324.003 103.06 322.503 102.06 323 97.5C325.063 95.266 327.229 93.266 329.5 91.5Z" fill="#592D1A"/>
<path fill-rule="evenodd" clip-rule="evenodd" d="M559.5 99.5C557.948 102.112 555.614 103.445 552.5 103.5C540.833 103.5 529.167 103.5 517.5 103.5C515.018 101.497 514.018 98.831 514.5 95.5C528.882 95.816 543.215 95.483 557.5 94.5C558.17 96.291 558.837 97.958 559.5 99.5Z" fill="#E5E0C7"/>
<path fill-rule="evenodd" clip-rule="evenodd" d="M315.5 103.5C314.025 101.59 312.025 100.424 309.5 100C298.761 97.917 294.095 102.084 295.5 112.5C290.89 110.312 289.39 106.645 291 101.5C299.468 95.459 308.301 94.959 317.5 100C321.599 103.021 320.933 104.187 315.5 103.5Z" fill="#F3F3F1"/>
<path fill-rule="evenodd" clip-rule="evenodd" d="M315.5 103.5C307.915 104.459 301.581 107.793 296.5 113.5C295.893 113.376 295.56 113.043 295.5 112.5C294.095 102.084 298.761 97.917 309.5 100C312.025 100.424 314.025 101.59 315.5 103.5Z" fill="#D7D5CB"/>
<path fill-rule="evenodd" clip-rule="evenodd" d="M517.5 103.5C529.167 103.5 540.833 103.5 552.5 103.5C541.346 104.495 530.012 104.828 518.5 104.5C518.768 106.099 518.434 107.432 517.5 108.5C517.5 106.833 517.5 105.167 517.5 103.5Z" fill="#444239"/>
<path fill-rule="evenodd" clip-rule="evenodd" d="M330.5 103.5C339.286 103.28 347.62 105.113 355.5 109C356.5 110 357.5 111 358.5 112C347.415 115.7 337.749 113.367 329.5 105C330.056 104.617 330.389 104.117 330.5 103.5Z" fill="#DFE1DE"/>
<path fill-rule="evenodd" clip-rule="evenodd" d="M159.5 17.5C158.189 58.157 158.189 99.157 159.5 140.5C163.814 146.381 169.481 148.047 176.5 145.5C177.17 147.291 177.837 148.958 178.5 150.5C169.172 157.813 160.672 156.813 153 147.5C152.209 146.255 151.709 144.922 151.5 143.5C153.461 145.121 155.461 146.787 157.5 148.5C158.737 148.444 159.737 147.944 160.5 147C158.365 146.241 157.032 144.741 156.5 142.5C157.827 102.537 157.827 62.537 156.5 22.5C152.961 24.68 152.628 27.346 155.5 30.5C155.576 66.953 155.243 103.619 154.5 140.5C153.841 104.16 153.008 67.827 152 31.5C151.617 30.944 151.117 30.611 150.5 30.5C151.286 24.582 154.286 20.249 159.5 17.5Z" fill="#E4DDC6"/>
<path fill-rule="evenodd" clip-rule="evenodd" d="M311.5 106.5C316.58 106.25 321.58 106.75 326.5 108C334.984 113.095 335.651 119.095 328.5 126C318.699 133.03 308.865 133.196 299 126.5C296.109 120.103 297.609 114.936 303.5 111C306.391 109.726 309.058 108.226 311.5 106.5Z" fill="#E0DDD6"/>
<path fill-rule="evenodd" clip-rule="evenodd" d="M622.5 91.5C624.461 98.087 625.128 105.087 624.5 112.5C638.504 112.06 652.504 111.894 666.5 112C679.872 117.454 683.372 126.621 677 139.5C674.629 142.206 671.963 144.539 669 146.5C664.975 136.474 658.142 128.974 648.5 124C636.822 118.332 624.488 115.998 611.5 117C616.382 113.786 620.215 109.619 623 104.5C624.58 99.404 622.746 96.237 617.5 95C619.346 93.97 621.013 92.804 622.5 91.5Z" fill="#F4F4F3"/>
<path fill-rule="evenodd" clip-rule="evenodd" d="M582.5 124.5C582.5 125.5 582.5 126.5 582.5 127.5C573.26 124.696 564.26 121.196 555.5 117C551.577 116.207 547.744 116.374 544 117.5C543.044 116.106 541.711 115.439 540 115.5C534.673 115.826 529.673 117.159 525 119.5C523.806 117.976 522.306 116.81 520.5 116C521.942 115.623 522.942 114.79 523.5 113.5C526.197 111.559 529.197 110.059 532.5 109C548.039 106.126 562.372 108.792 575.5 117C578.428 119.09 580.761 121.59 582.5 124.5Z" fill="#44AC6F"/>
<path fill-rule="evenodd" clip-rule="evenodd" d="M374.5 121.5C370.526 128.474 365.192 134.14 358.5 138.5C353.239 140.418 347.906 142.085 342.5 143.5C339.718 142.067 336.718 140.9 333.5 140C337.339 138.455 341.006 136.955 344.5 135.5C354.173 131.82 359.84 124.82 361.5 114.5C362.461 112.735 362.795 110.735 362.5 108.5C363.5 108.5 364.5 108.5 365.5 108.5C367.42 98.593 367.92 88.593 367 78.5C365.777 74.385 363.777 70.718 361 67.5C360.802 69.382 360.302 71.048 359.5 72.5C359.664 69.813 359.497 67.146 359 64.5C357.263 61.603 355.763 58.603 354.5 55.5C354.833 55.167 355.167 54.833 355.5 54.5C359.229 56.94 362.395 59.94 365 63.5C374.881 79.329 377.381 94.829 372.5 110C372.349 114.112 373.016 117.946 374.5 121.5Z" fill="#3BA46A"/>
<path fill-rule="evenodd" clip-rule="evenodd" d="M337.5 115.5C343.963 117.471 350.463 117.804 357 116.5C355.997 126.498 350.33 131.831 340 132.5C337.747 132.369 335.581 131.869 333.5 131C336.959 126.446 338.292 121.279 337.5 115.5Z" fill="#5F3317"/>
<path fill-rule="evenodd" clip-rule="evenodd" d="M285.5 42.5C277.6 52.633 272.1 63.967 269 76.5C265.666 108.689 278.832 130.856 308.5 143C313.607 144.222 318.774 145.055 324 145.5C330.169 144.785 336.335 144.119 342.5 143.5C347.906 142.085 353.239 140.418 358.5 138.5C351.507 145.833 342.84 150.333 332.5 152C298.341 155.166 275.174 140.666 263 108.5C255.508 81.194 263.008 59.194 285.5 42.5Z" fill="#1A764A"/>
<path fill-rule="evenodd" clip-rule="evenodd" d="M639.5 124.5C647.5 126.921 654.333 131.254 660 137.5C661.394 139.388 662.56 141.388 663.5 143.5C663.631 144.376 663.298 145.043 662.5 145.5C654.83 139.343 646.496 134.176 637.5 130C626.572 127.35 615.572 125.35 604.5 124C616.177 122.433 627.843 122.6 639.5 124.5Z" fill="#4DB472"/>
<path fill-rule="evenodd" clip-rule="evenodd" d="M333.5 122.5C332.378 129.47 328.045 133.97 320.5 136C316.833 136.667 313.167 136.667 309.5 136C315.236 134.813 320.903 133.146 326.5 131C329.423 128.584 331.757 125.75 333.5 122.5Z" fill="#442515"/>
<path fill-rule="evenodd" clip-rule="evenodd" d="M515.5 113.5C517.5 113.5 519.5 113.5 521.5 113.5C515.111 116.224 510.777 120.89 508.5 127.5C508.57 128.772 508.903 129.938 509.5 131C512.257 131.584 514.923 131.25 517.5 130C521.744 126.756 526.244 123.922 531 121.5C532.659 122.954 532.326 124.287 530 125.5C528.833 129.667 530.333 131.167 534.5 130C539.654 127 544.654 123.833 549.5 120.5C549.833 121.167 550.167 121.833 550.5 122.5C548.757 124.822 547.423 127.322 546.5 130C546.833 130.833 547.167 131.667 547.5 132.5C554.901 129.64 562.568 128.806 570.5 130C570.957 130.414 571.291 130.914 571.5 131.5C566.479 132.244 561.479 133.077 556.5 134C552.965 134.663 549.965 136.163 547.5 138.5C543.608 140.062 540.275 142.395 537.5 145.5C534.833 147.833 532.167 150.167 529.5 152.5C529.179 150.952 528.179 150.285 526.5 150.5C528.5 148.167 530.5 145.833 532.5 143.5C535.789 141.384 538.956 139.051 542 136.5C542.667 134.5 542.667 132.5 542 130.5C538.989 132.615 535.655 133.949 532 134.5C528.6 134.388 526.433 132.722 525.5 129.5C522.617 132.109 519.283 133.942 515.5 135C509.005 136.674 505.338 134.174 504.5 127.5C505.944 121.059 509.611 116.392 515.5 113.5Z" fill="#0B0E09"/>
<path fill-rule="evenodd" clip-rule="evenodd" d="M609.5 79.5C603.848 86.121 599.181 93.454 595.5 101.5C595.833 102.167 596.167 102.833 596.5 103.5C599.1 100.781 602.1 100.114 605.5 101.5C602.167 104.5 598.833 107.5 595.5 110.5C594.691 112.071 594.357 113.738 594.5 115.5C597.39 115.722 600.057 115.055 602.5 113.5C603.308 113.808 603.975 114.308 604.5 115C603.167 115.333 601.833 115.667 600.5 116C601.252 116.671 601.586 117.504 601.5 118.5C599.2 120.637 597.033 122.97 595 125.5C594.312 126.332 594.479 126.998 595.5 127.5C606.261 120.932 617.928 118.765 630.5 121C633.802 121.661 636.802 122.828 639.5 124.5C627.843 122.6 616.177 122.433 604.5 124C615.572 125.35 626.572 127.35 637.5 130C646.496 134.176 654.83 139.343 662.5 145.5C663.298 145.043 663.631 144.376 663.5 143.5C664.801 144.884 664.801 146.384 663.5 148C659.833 148.667 656.167 148.667 652.5 148C646.27 141.934 639.604 136.434 632.5 131.5C631.524 133.123 632.024 134.457 634 135.5C634.494 137.134 634.66 138.801 634.5 140.5C627.508 137.583 620.175 135.583 612.5 134.5C611.167 134.833 609.833 135.167 608.5 135.5C608.863 136.183 609.196 136.85 609.5 137.5C608.5 137.5 607.5 137.5 606.5 137.5C606.334 141.514 606.501 145.514 607 149.5C608.088 145.55 610.422 144.55 614 146.5C615.434 146.138 616.601 145.472 617.5 144.5C620.699 148.232 622.866 152.565 624 157.5C624.797 160.721 624.297 163.721 622.5 166.5C619.812 163.638 617.479 160.472 615.5 157C613.695 156.028 612.028 154.861 610.5 153.5C609.28 154.711 608.113 154.711 607 153.5C605.768 148.279 605.101 142.946 605 137.5C602.389 133.34 598.556 131.34 593.5 131.5C590.459 131.55 587.792 132.55 585.5 134.5C585.53 133.503 585.03 132.836 584 132.5C582.715 132.95 581.548 133.617 580.5 134.5C579.808 133.975 579.308 133.308 579 132.5C578.667 134.167 578.333 135.833 578 137.5C577.348 135.277 575.848 134.11 573.5 134C570.5 133.333 567.5 133.333 564.5 134C565.973 134.71 566.64 135.876 566.5 137.5C564.406 136.758 562.239 136.091 560 135.5C555.977 136.869 551.81 137.869 547.5 138.5C549.965 136.163 552.965 134.663 556.5 134C561.479 133.077 566.479 132.244 571.5 131.5C571.291 130.914 570.957 130.414 570.5 130C562.568 128.806 554.901 129.64 547.5 132.5C547.167 131.667 546.833 130.833 546.5 130C547.423 127.322 548.757 124.822 550.5 122.5C550.167 121.833 549.833 121.167 549.5 120.5C544.654 123.833 539.654 127 534.5 130C530.333 131.167 528.833 129.667 530 125.5C532.326 124.287 532.659 122.954 531 121.5C526.244 123.922 521.744 126.756 517.5 130C514.923 131.25 512.257 131.584 509.5 131C508.903 129.938 508.57 128.772 508.5 127.5C510.777 120.89 515.111 116.224 521.5 113.5C522.167 113.5 522.833 113.5 523.5 113.5C522.942 114.79 521.942 115.623 520.5 116C522.306 116.81 523.806 117.976 525 119.5C529.673 117.159 534.673 115.826 540 115.5C541.711 115.439 543.044 116.106 544 117.5C547.744 116.374 551.577 116.207 555.5 117C564.26 121.196 573.26 124.696 582.5 127.5C582.5 126.5 582.5 125.5 582.5 124.5C584.551 108.233 591.551 94.399 603.5 83C605.405 81.579 607.405 80.412 609.5 79.5Z" fill="#2F915E"/>
<path fill-rule="evenodd" clip-rule="evenodd" d="M122.5 246.5C122.92 244.906 123.586 243.406 124.5 242C124.167 241.5 123.833 241 123.5 240.5C120.346 243.243 117.012 245.743 113.5 248C109.644 248.867 105.977 250.2 102.5 252C90.265 255.304 77.931 255.304 65.5 252C61.423 250.213 57.59 248.046 54 245.5C53.501 249.152 53.335 252.818 53.5 256.5C53.5 271.5 53.5 286.5 53.5 301.5C53.163 305.836 51.496 309.503 48.5 312.5C47.839 311.282 47.172 309.949 46.5 308.5C37.473 313.555 29.639 312.222 23 304.5C22.5 264.501 22.333 224.501 22.5 184.5C25.068 163.684 35.734 148.684 54.5 139.5C55.91 138.431 56.91 137.097 57.5 135.5C89.426 126.309 115.26 134.975 135 161.5C147.813 185.703 147.48 209.703 134 233.5C131.045 238.621 127.211 242.955 122.5 246.5Z" fill="#FCFCFB"/>
<path fill-rule="evenodd" clip-rule="evenodd" d="M600.5 149.5C598.208 149.756 596.041 149.423 594 148.5C592.192 144.963 590.692 141.297 589.5 137.5C594.113 134.434 598.28 135.101 602 139.5C602.667 142.5 602.667 145.5 602 148.5C601.617 149.056 601.117 149.389 600.5 149.5Z" fill="#E53B2E"/>
<path fill-rule="evenodd" clip-rule="evenodd" d="M585.5 134.5C583.539 136.798 582.539 139.465 582.5 142.5C571.497 138.204 560.664 138.537 550 143.5C548.838 142.813 547.672 142.647 546.5 143C544.301 146.193 541.801 149.026 539 151.5C538.5 151.167 538 150.833 537.5 150.5C538.052 148.997 538.052 147.331 537.5 145.5C540.275 142.395 543.608 140.062 547.5 138.5C551.81 137.869 555.977 136.869 560 135.5C562.239 136.091 564.406 136.758 566.5 137.5C566.64 135.876 565.973 134.71 564.5 134C567.5 133.333 570.5 133.333 573.5 134C575.848 134.11 577.348 135.277 578 137.5C578.333 135.833 578.667 134.167 579 132.5C579.308 133.308 579.808 133.975 580.5 134.5C581.548 133.617 582.715 132.95 584 132.5C585.03 132.836 585.53 133.503 585.5 134.5Z" fill="#3EAB6F"/>
<path fill-rule="evenodd" clip-rule="evenodd" d="M337.5 31.5C333.833 31.5 330.167 31.5 326.5 31.5C323.15 31.335 319.817 31.502 316.5 32C313.625 33.302 310.625 34.135 307.5 34.5C307.5 35.5 307.5 36.5 307.5 37.5C304.291 36.72 301.291 36.886 298.5 38C285.601 49.342 279.267 63.675 279.5 81C280.435 86.818 280.602 92.651 280 98.5C279.085 97.672 278.419 96.672 278 95.5C277.658 97.818 278.158 99.985 279.5 102C280.744 102.456 281.577 101.956 282 100.5C282.692 101.025 283.192 101.692 283.5 102.5C282.263 103.281 281.263 104.281 280.5 105.5C282.6 112.435 286.767 117.769 293 121.5C293.278 120.584 293.778 119.918 294.5 119.5C294.337 121.857 294.503 124.19 295 126.5C304.448 140.579 316.448 143.246 331 134.5C335.446 135.412 339.946 135.745 344.5 135.5C341.006 136.955 337.339 138.455 333.5 140C336.718 140.9 339.718 142.067 342.5 143.5C336.335 144.119 330.169 144.785 324 145.5C318.774 145.055 313.607 144.222 308.5 143C278.832 130.856 265.666 108.689 269 76.5C272.1 63.967 277.6 52.633 285.5 42.5C300.938 29.975 318.271 26.308 337.5 31.5Z" fill="#339760"/>
<path fill-rule="evenodd" clip-rule="evenodd" d="M638.5 141.5C640.729 142.055 642.395 143.389 643.5 145.5C640.853 145.895 639.187 144.562 638.5 141.5Z" fill="#588C79"/>
<path fill-rule="evenodd" clip-rule="evenodd" d="M589.5 137.5C590.692 141.297 592.192 144.963 594 148.5C596.041 149.423 598.208 149.756 600.5 149.5C600.167 150.5 599.5 151.167 598.5 151.5C595.833 151.167 593.167 150.833 590.5 150.5C587.894 148.961 586.561 146.628 586.5 143.5C586.467 140.898 587.467 138.898 589.5 137.5Z" fill="#B0201A"/>
<path fill-rule="evenodd" clip-rule="evenodd" d="M491.5 17.5C491.013 18.473 490.513 19.473 490 20.5C489.333 58.833 489.333 97.167 490 135.5C491.617 136.851 492.784 138.518 493.5 140.5C495.002 141.083 496.335 141.916 497.5 143C509.162 143.5 520.829 143.667 532.5 143.5C530.5 145.833 528.5 148.167 526.5 150.5C526.389 151.117 526.056 151.617 525.5 152C515.167 152.667 504.833 152.667 494.5 152C487.903 149.737 483.736 145.237 482 138.5C481.333 101.5 481.333 64.5 482 27.5C484.016 22.986 487.183 19.653 491.5 17.5Z" fill="#E4DEC4"/>
<path fill-rule="evenodd" clip-rule="evenodd" d="M590.5 150.5C593.167 150.833 595.833 151.167 598.5 151.5C599.5 152.167 600.5 152.833 601.5 153.5C598.545 154.159 595.545 154.492 592.5 154.5C592.804 153.85 593.137 153.183 593.5 152.5C592.398 151.824 591.398 151.158 590.5 150.5Z" fill="#501816"/>
<path fill-rule="evenodd" clip-rule="evenodd" d="M564.5 149.5C561.744 154.592 557.744 158.258 552.5 160.5C551.227 156.989 550.227 153.322 549.5 149.5C548.505 155.128 548.171 160.794 548.5 166.5C546.901 166.768 545.568 166.434 544.5 165.5C545.5 165.5 546.5 165.5 547.5 165.5C547.037 162.518 546.704 159.518 546.5 156.5C545.5 156.5 544.5 156.5 543.5 156.5C541.401 151.646 542.734 149.979 547.5 151.5C547.884 149.071 548.551 146.737 549.5 144.5C550.675 144.281 551.675 144.614 552.5 145.5C553.244 148.443 553.744 151.443 554 154.5C554.414 154.957 554.914 155.291 555.5 155.5C556.692 153.258 557.692 150.925 558.5 148.5C559 148.167 559.5 147.833 560 147.5C561.3 148.707 562.8 149.374 564.5 149.5Z" fill="#2F875A"/>
<path fill-rule="evenodd" clip-rule="evenodd" d="M566.5 153.5C567.254 156.023 567.92 158.689 568.5 161.5C568.167 161.833 567.833 162.167 567.5 162.5C565.218 159.746 564.885 156.746 566.5 153.5Z" fill="#573428"/>
<path fill-rule="evenodd" clip-rule="evenodd" d="M592.5 154.5C595.545 154.492 598.545 154.159 601.5 153.5C603.95 156.6 604.117 159.934 602 163.5C599.698 165.501 597.198 166.001 594.5 165C593.614 166.615 592.614 168.115 591.5 169.5C589.084 169.039 587.25 167.706 586 165.5C584.56 166.148 583.06 166.481 581.5 166.5C581.762 165.022 581.429 163.689 580.5 162.5C577.724 162.054 575.224 161.054 573 159.5C572.502 156.518 572.335 153.518 572.5 150.5C576.798 145.278 581.298 145.278 586 150.5C586.497 152.81 586.663 155.143 586.5 157.5C588.947 157.385 590.947 156.385 592.5 154.5Z" fill="#D13426"/>
<path fill-rule="evenodd" clip-rule="evenodd" d="M243.5 297.5C238.006 295.881 232.339 295.048 226.5 295C224.044 292.592 222.211 289.759 221 286.5C219.574 281.959 218.074 277.459 216.5 273C199.503 272.5 182.503 272.333 165.5 272.5C165.21 275.785 165.877 278.785 167.5 281.5C166.105 285.515 164.605 289.515 163 293.5C161.669 295.996 159.836 297.996 157.5 299.5C156.566 298.432 156.232 297.099 156.5 295.5C144.762 298.264 138.595 293.931 138 282.5C152.143 242.561 165.976 202.561 179.5 162.5C188.062 160.705 196.396 161.539 204.5 165C206.709 166.873 208.542 169.04 210 171.5C223.046 208.636 235.712 245.969 248 283.5C248.014 288.625 246.514 293.291 243.5 297.5Z" fill="#FBFBFB"/>
<path fill-rule="evenodd" clip-rule="evenodd" d="M460.5 297.5C458.742 297.123 457.075 296.456 455.5 295.5C446.187 298.177 439.853 295.01 436.5 286C435.418 281.506 434.418 277.006 433.5 272.5C416.5 272.5 399.5 272.5 382.5 272.5C382.616 275.86 382.949 279.193 383.5 282.5C382.215 289.733 378.882 295.733 373.5 300.5C373.093 299.238 372.76 297.905 372.5 296.5C367.734 295.789 363.067 294.789 358.5 293.5C357.861 291.24 356.694 289.24 355 287.5C354.333 285.167 354.333 282.833 355 280.5C365.606 251.617 375.939 222.617 386 193.5C388.156 185.375 390.489 177.375 393 169.5C394.767 166.228 397.267 163.895 400.5 162.5C406.536 161.054 412.536 161.22 418.5 163C422.388 165.222 425.221 168.388 427 172.5C439.527 209.082 451.861 245.748 464 282.5C464.779 287.989 463.612 292.989 460.5 297.5Z" fill="#FBFBFA"/>
<path fill-rule="evenodd" clip-rule="evenodd" d="M572.5 150.5C572.335 153.518 572.502 156.518 573 159.5C575.224 161.054 577.724 162.054 580.5 162.5C581.429 163.689 581.762 165.022 581.5 166.5C583.06 166.481 584.56 166.148 586 165.5C587.25 167.706 589.084 169.039 591.5 169.5C591.083 170.124 590.416 170.457 589.5 170.5C587.573 168.707 585.239 167.707 582.5 167.5C582.5 168.5 582.5 169.5 582.5 170.5C581.132 168.436 580.132 166.102 579.5 163.5C578.155 164.347 577.155 165.513 576.5 167C574.888 167.72 573.388 167.554 572 166.5C571.398 169.221 571.565 171.887 572.5 174.5C571.542 174.047 570.708 173.381 570 172.5C569.503 169.854 569.336 167.187 569.5 164.5C571.484 164.383 573.15 165.05 574.5 166.5C576.111 165.68 576.778 164.346 576.5 162.5C571.345 161.203 569.512 157.87 571 152.5C571.278 151.584 571.778 150.918 572.5 150.5Z" fill="#B52927"/>
<path fill-rule="evenodd" clip-rule="evenodd" d="M715.5 208.5C714.566 207.432 714.232 206.099 714.5 204.5C711.813 204.664 709.146 204.497 706.5 204C701.733 201.069 697.399 197.569 693.5 193.5C686.256 189.173 678.923 188.84 671.5 192.5C667.058 196.706 666.392 201.372 669.5 206.5C669.848 209.019 671.181 210.853 673.5 212C681.754 215.529 690.087 218.862 698.5 222C727.352 236.234 733.852 257.4 718 285.5C713.926 290.079 709.426 294.079 704.5 297.5C703.698 296.048 703.198 294.382 703 292.5C684.512 300.192 666.679 299.026 649.5 289C640.17 281.67 636.337 272.17 638 260.5C639.082 257.883 640.582 255.549 642.5 253.5C653.223 250.277 660.723 253.944 665 264.5C673.236 273.346 681.736 273.679 690.5 265.5C695.632 265.939 698.299 263.606 698.5 258.5C698.16 256.488 697.827 254.488 697.5 252.5C696.5 252.5 695.5 252.5 694.5 252.5C694.719 251.325 694.386 250.325 693.5 249.5C691.032 248.197 688.699 246.697 686.5 245C677.881 242.008 669.215 239.008 660.5 236C646.851 229.503 640.518 218.67 641.5 203.5C641.195 200.586 641.195 197.919 641.5 195.5C645.316 201.922 650.65 204.089 657.5 202C660.905 197.442 662.238 192.275 661.5 186.5C661.754 179.516 660.421 172.849 657.5 166.5C677.616 158.027 696.283 160.527 713.5 174C720.662 179.489 724.162 186.656 724 195.5C722.647 200.892 719.813 205.226 715.5 208.5Z" fill="#FAFAFA"/>
<path fill-rule="evenodd" clip-rule="evenodd" d="M480.5 165.5C493.184 165.168 505.851 165.501 518.5 166.5C514.966 174.035 514.633 181.701 517.5 189.5C511.906 190.093 506.239 190.926 500.5 192C499.289 195.01 500.289 197.177 503.5 198.5C503.169 221.339 503.503 244.006 504.5 266.5C510.536 266.64 516.536 266.307 522.5 265.5C538.711 263.462 548.878 254.462 553 238.5C555.35 224.05 551.517 211.55 541.5 201C537.468 197.762 533.134 195.262 528.5 193.5C531.401 192.464 533.901 190.797 536 188.5C539.383 183.725 542.216 178.725 544.5 173.5C576.239 191.862 587.405 218.862 578 254.5C573.128 269.522 564.294 281.522 551.5 290.5C550.957 290.44 550.624 290.107 550.5 289.5C551.64 287.922 552.14 286.256 552 284.5C548.154 287.23 543.987 289.397 539.5 291C536.226 292.202 532.893 293.202 529.5 294C513.5 294.667 497.5 294.667 481.5 294C479.641 292.442 478.141 290.609 477 288.5C476.333 249.5 476.333 210.5 477 171.5C477.564 169.113 478.73 167.113 480.5 165.5Z" fill="#FCFBFB"/>
<path fill-rule="evenodd" clip-rule="evenodd" d="M336.5 251.5C331.1 247.829 326.1 248.496 321.5 253.5C322.513 255.527 323.513 257.527 324.5 259.5C329.123 265.294 333.956 270.961 339 276.5C344.884 284.91 344.05 292.577 336.5 299.5C335.751 298.469 335.085 297.302 334.5 296C329.718 295.881 325.051 295.215 320.5 294C311.395 283.116 302.062 272.449 292.5 262C290.655 260.872 288.655 260.372 286.5 260.5C286.5 263.833 286.5 267.167 286.5 270.5C286.5 276.833 286.5 283.167 286.5 289.5C285.519 294.489 282.852 298.156 278.5 300.5C278.5 298.5 278.5 296.5 278.5 294.5C269.858 297.625 263.358 295.292 259 287.5C258.333 249.167 258.333 210.833 259 172.5C259.926 170.308 261.093 168.308 262.5 166.5C270.827 165.834 279.327 165.5 288 165.5C309.815 161.379 328.148 167.379 343 183.5C355.416 201.325 356.749 219.991 347 239.5C344.38 244.286 340.88 248.286 336.5 251.5Z" fill="#FBFBFB"/>
<path fill-rule="evenodd" clip-rule="evenodd" d="M621.5 146.5C623.839 146.41 626.172 146.91 628.5 148C633.272 152.376 636.939 157.543 639.5 163.5C643.276 160.372 646.11 161.039 648 165.5C649.902 171.51 649.736 177.51 647.5 183.5C648.157 188.995 651.157 191.828 656.5 192C657.451 188.943 657.784 185.777 657.5 182.5C658.933 187.85 658.433 193.184 656 198.5C653.455 199.797 650.955 199.631 648.5 198C645.792 195.303 643.959 192.137 643 188.5C642.306 180.649 642.639 172.983 644 165.5C640.736 169.028 638.236 173.028 636.5 177.5C634.182 178.834 632.515 178.168 631.5 175.5C632.07 164.433 628.737 154.766 621.5 146.5Z" fill="#2E8858"/>
<path fill-rule="evenodd" clip-rule="evenodd" d="M826.5 197.5C825.935 195.614 824.935 193.947 823.5 192.5C803.996 194.306 784.33 195.139 764.5 195C764.315 197.818 765.482 200.318 768 202.5C768.174 207.684 768.674 212.684 769.5 217.5C782.504 217.333 795.504 217.5 808.5 218C819.025 223.229 822.192 231.396 818 242.5C817.208 245.106 815.708 247.106 813.5 248.5C812.549 247.081 812.216 245.415 812.5 243.5C796.535 244.455 780.535 244.788 764.5 244.5C764.338 246.527 764.505 248.527 765 250.5C765.71 251.973 766.876 252.64 768.5 252.5C768.181 257.363 768.514 262.03 769.5 266.5C786.995 267.332 804.662 267.832 822.5 268C831.482 272.473 834.649 279.64 832 289.5C831.634 291.452 830.801 293.118 829.5 294.5C827.723 294.214 826.056 293.547 824.5 292.5C811.428 293.797 798.261 294.463 785 294.5C772.5 294.333 760 294.167 747.5 294C744.506 292.341 742.672 289.841 742 286.5C741.19 247.144 741.357 207.811 742.5 168.5C742.611 167.883 742.944 167.383 743.5 167C756.333 166.833 769.167 166.667 782 166.5C795.899 166.359 809.732 166.859 823.5 168C833.367 175.361 835.2 184.528 829 195.5C828.292 196.381 827.458 197.047 826.5 197.5Z" fill="#FCFCFC"/>
<path fill-rule="evenodd" clip-rule="evenodd" d="M582.5 170.5C583.593 175.239 581.76 177.239 577 176.5C575.014 176.431 573.514 175.765 572.5 174.5C571.565 171.887 571.398 169.221 572 166.5C573.388 167.554 574.888 167.72 576.5 167C577.155 165.513 578.155 164.347 579.5 163.5C580.132 166.102 581.132 168.436 582.5 170.5Z" fill="#CC2721"/>
<path fill-rule="evenodd" clip-rule="evenodd" d="M604.5 169.5C602.473 169.338 600.473 169.505 598.5 170C599.792 175.304 601.126 180.47 602.5 185.5C600.492 187.268 598.326 188.934 596 190.5C595.152 185.736 593.985 181.069 592.5 176.5C594.069 170.93 597.736 167.93 603.5 167.5C604.298 167.957 604.631 168.624 604.5 169.5Z" fill="#88380D"/>
<path fill-rule="evenodd" clip-rule="evenodd" d="M604.5 169.5C608.409 173.317 610.742 177.984 611.5 183.5C608.308 183.405 605.308 184.071 602.5 185.5C601.126 180.47 599.792 175.304 598.5 170C600.473 169.505 602.473 169.338 604.5 169.5Z" fill="#A7551E"/>
<path fill-rule="evenodd" clip-rule="evenodd" d="M75.5 220.5C61.21 215.602 55.376 205.602 58 190.5C59.887 185.787 62.721 181.787 66.5 178.5C81.356 171.333 92.856 175 101 189.5C103.55 209.104 95.05 219.438 75.5 220.5Z" fill="#040403"/>
<path fill-rule="evenodd" clip-rule="evenodd" d="M582.5 142.5C579.735 142.604 576.735 142.771 573.5 143C571.161 146.186 568.161 148.352 564.5 149.5C562.8 149.374 561.3 148.707 560 147.5C559.5 147.833 559 148.167 558.5 148.5C557.692 150.925 556.692 153.258 555.5 155.5C554.914 155.291 554.414 154.957 554 154.5C553.744 151.443 553.244 148.443 552.5 145.5C551.675 144.614 550.675 144.281 549.5 144.5C548.551 146.737 547.884 149.071 547.5 151.5C542.734 149.979 541.401 151.646 543.5 156.5C544.5 156.5 545.5 156.5 546.5 156.5C546.704 159.518 547.037 162.518 547.5 165.5C546.5 165.5 545.5 165.5 544.5 165.5C541.782 162.455 539.116 159.455 536.5 156.5C533.071 160.955 530.904 165.955 530 171.5C530.895 168.625 531.728 168.292 532.5 170.5C530.299 176.715 528.633 183.048 527.5 189.5C526.167 189.5 524.833 189.5 523.5 189.5C521.39 188.547 520.223 186.881 520 184.5C518.822 172.527 521.989 161.861 529.5 152.5C532.167 150.167 534.833 147.833 537.5 145.5C538.052 147.331 538.052 148.997 537.5 150.5C538 150.833 538.5 151.167 539 151.5C541.801 149.026 544.301 146.193 546.5 143C547.672 142.647 548.838 142.813 550 143.5C560.664 138.537 571.497 138.204 582.5 142.5Z" fill="#309C64"/>
<path fill-rule="evenodd" clip-rule="evenodd" d="M536.5 156.5C537.498 163.48 537.998 170.48 538 177.5C535.673 183.489 531.673 187.822 526 190.5C524.93 190.472 524.097 190.139 523.5 189.5C524.833 189.5 526.167 189.5 527.5 189.5C528.633 183.048 530.299 176.715 532.5 170.5C531.728 168.292 530.895 168.625 530 171.5C530.904 165.955 533.071 160.955 536.5 156.5Z" fill="#248253"/>
<path fill-rule="evenodd" clip-rule="evenodd" d="M609.5 137.5C622.178 139.672 633.511 144.838 643.5 153C651.603 161.25 656.269 171.083 657.5 182.5C657.784 185.777 657.451 188.943 656.5 192C651.157 191.828 648.157 188.995 647.5 183.5C649.736 177.51 649.902 171.51 648 165.5C646.11 161.039 643.276 160.372 639.5 163.5C636.939 157.543 633.272 152.376 628.5 148C626.172 146.91 623.839 146.41 621.5 146.5C619.938 146.267 618.605 145.6 617.5 144.5C616.601 145.472 615.434 146.138 614 146.5C610.422 144.55 608.088 145.55 607 149.5C606.501 145.514 606.334 141.514 606.5 137.5C607.5 137.5 608.5 137.5 609.5 137.5Z" fill="#44A86F"/>
<path fill-rule="evenodd" clip-rule="evenodd" d="M57.5 135.5C56.91 137.097 55.91 138.431 54.5 139.5C35.734 148.684 25.068 163.684 22.5 184.5C21.165 186.5 19.832 188.5 18.5 190.5C19.276 196.481 19.943 202.481 20.5 208.5C18.959 223.116 18.292 237.783 18.5 252.5C18.365 269.564 19.031 286.564 20.5 303.5C18.989 305.838 19.323 306.504 21.5 305.5C23.833 307.167 25.833 309.167 27.5 311.5C31.302 312.228 34.969 313.394 38.5 315C36.287 315.626 34.12 315.459 32 314.5C30.333 315.167 28.667 315.833 27 316.5C23.905 312.574 20.072 309.574 15.5 307.5C14.852 305.914 14.352 304.247 14 302.5C13.833 283.167 13.667 263.833 13.5 244.5C13.362 223.459 13.862 202.459 15 181.5C21.412 158.924 35.579 143.591 57.5 135.5Z" fill="#DCD7BB"/>
<path fill-rule="evenodd" clip-rule="evenodd" d="M715.5 208.5C709.411 213.632 703.078 213.799 696.5 209C690.765 199.794 682.765 196.794 672.5 200C670.081 201.509 669.081 203.675 669.5 206.5C666.392 201.372 667.058 196.706 671.5 192.5C678.923 188.84 686.256 189.173 693.5 193.5C697.399 197.569 701.733 201.069 706.5 204C709.146 204.497 711.813 204.664 714.5 204.5C714.232 206.099 714.566 207.432 715.5 208.5Z" fill="#E2DDC6"/>
<path fill-rule="evenodd" clip-rule="evenodd" d="M75.5 220.5C95.05 219.438 103.55 209.104 101 189.5C92.856 175 81.356 171.333 66.5 178.5C65.322 177.001 63.655 176.001 61.5 175.5C62.93 172.567 64.93 170.067 67.5 168C83.95 163.555 97.117 168.055 107 181.5C113.019 194.3 111.185 205.8 101.5 216C96.966 219.218 91.966 221.385 86.5 222.5C82.669 221.973 79.002 221.306 75.5 220.5Z" fill="#E3DEC5"/>
<path fill-rule="evenodd" clip-rule="evenodd" d="M517.5 189.5C520.405 192.78 524.071 194.113 528.5 193.5C533.134 195.262 537.468 197.762 541.5 201C551.517 211.55 555.35 224.05 553 238.5C548.878 254.462 538.711 263.462 522.5 265.5C544.519 253.765 550.352 236.432 540 213.5C533.809 205.323 525.642 200.656 515.5 199.5C511.702 198.517 507.702 198.183 503.5 198.5C500.289 197.177 499.289 195.01 500.5 192C506.239 190.926 511.906 190.093 517.5 189.5Z" fill="#E2DDC4"/>
<path fill-rule="evenodd" clip-rule="evenodd" d="M826.5 197.5C824.59 199.562 822.257 201.062 819.5 202C802.837 202.5 786.17 202.667 769.5 202.5C769.5 207.5 769.5 212.5 769.5 217.5C768.674 212.684 768.174 207.684 768 202.5C765.482 200.318 764.315 197.818 764.5 195C784.33 195.139 803.996 194.306 823.5 192.5C824.935 193.947 825.935 195.614 826.5 197.5Z" fill="#E4E0C5"/>
<path fill-rule="evenodd" clip-rule="evenodd" d="M641.5 195.5C641.195 197.919 641.195 200.586 641.5 203.5C639.146 201.374 636.813 199.374 634.5 197.5C634.848 193.259 636.015 189.259 638 185.5C638.679 189.039 639.846 192.372 641.5 195.5Z" fill="#C4B5A1"/>
<path fill-rule="evenodd" clip-rule="evenodd" d="M515.5 199.5C525.642 200.656 533.809 205.323 540 213.5C550.352 236.432 544.519 253.765 522.5 265.5C516.536 266.307 510.536 266.64 504.5 266.5C504.5 244.167 504.5 221.833 504.5 199.5C508.167 199.5 511.833 199.5 515.5 199.5Z" fill="#020202"/>
<path fill-rule="evenodd" clip-rule="evenodd" d="M609.5 215.5C607.5 215.5 605.5 215.5 603.5 215.5C603.499 207.483 603.166 199.483 602.5 191.5C604.954 191.321 607.121 191.987 609 193.5C609.5 193.167 610 192.833 610.5 192.5C609.675 191.614 608.675 191.281 607.5 191.5C607.5 190.5 607.5 189.5 607.5 188.5C609.808 187.286 612.141 187.286 614.5 188.5C619.014 197.756 621.347 207.423 621.5 217.5C617.644 215.997 613.644 215.33 609.5 215.5Z" fill="#A25319"/>
<path fill-rule="evenodd" clip-rule="evenodd" d="M309.5 229.5C302.223 230.43 294.89 230.764 287.5 230.5C287.5 220.833 287.5 211.167 287.5 201.5C293.842 201.334 300.175 201.5 306.5 202C315.044 205.252 318.211 211.419 316 220.5C315.127 224.525 312.961 227.525 309.5 229.5Z" fill="#030202"/>
<path fill-rule="evenodd" clip-rule="evenodd" d="M309.5 229.5C312.961 227.525 315.127 224.525 316 220.5C318.211 211.419 315.044 205.252 306.5 202C300.175 201.5 293.842 201.334 287.5 201.5C287.5 211.167 287.5 220.833 287.5 230.5C286.861 218.269 285.861 205.936 284.5 193.5C293.173 193.334 301.84 193.5 310.5 194C323.546 199.926 328.046 209.759 324 223.5C320.257 227.889 315.423 229.889 309.5 229.5Z" fill="#DEDAC2"/>
<path fill-rule="evenodd" clip-rule="evenodd" d="M262.5 166.5C261.093 168.308 259.926 170.308 259 172.5C258.333 210.833 258.333 249.167 259 287.5C263.358 295.292 269.858 297.625 278.5 294.5C278.5 296.5 278.5 298.5 278.5 300.5C266.218 306.939 257.051 303.939 251 291.5C250.333 254.167 250.333 216.833 251 179.5C253.01 173.431 256.844 169.097 262.5 166.5Z" fill="#DFD9BE"/>
<path fill-rule="evenodd" clip-rule="evenodd" d="M22.5 184.5C22.333 224.501 22.5 264.501 23 304.5C29.639 312.222 37.473 313.555 46.5 308.5C47.172 309.949 47.839 311.282 48.5 312.5C42.902 318.753 35.902 320.919 27.5 319C22.338 316.337 18.338 312.504 15.5 307.5C20.072 309.574 23.905 312.574 27 316.5C28.667 315.833 30.333 315.167 32 314.5C34.12 315.459 36.287 315.626 38.5 315C34.969 313.394 31.302 312.228 27.5 311.5C25.833 309.167 23.833 307.167 21.5 305.5C19.323 306.504 18.989 305.838 20.5 303.5C19.031 286.564 18.365 269.564 18.5 252.5C18.292 237.783 18.959 223.116 20.5 208.5C19.943 202.481 19.276 196.481 18.5 190.5C19.832 188.5 21.165 186.5 22.5 184.5Z" fill="#E6E0C9"/>
<path fill-rule="evenodd" clip-rule="evenodd" d="M607.5 188.5C607.5 189.5 607.5 190.5 607.5 191.5C608.675 191.281 609.675 191.614 610.5 192.5C610 192.833 609.5 193.167 609 193.5C607.121 191.987 604.954 191.321 602.5 191.5C603.166 199.483 603.499 207.483 603.5 215.5C605.5 215.5 607.5 215.5 609.5 215.5C605.373 216.272 601.54 217.939 598 220.5C597.455 212.146 597.121 203.813 597 195.5C599.833 192.168 603.333 189.834 607.5 188.5Z" fill="#843C0F"/>
<path fill-rule="evenodd" clip-rule="evenodd" d="M187.5 215.5C191.588 224.083 194.921 233.083 197.5 242.5C194.913 243.816 191.913 244.483 188.5 244.5C185.314 244.498 182.314 244.165 179.5 243.5C182.166 234.167 184.833 224.834 187.5 215.5Z" fill="#0E0D0C"/>
<path fill-rule="evenodd" clip-rule="evenodd" d="M395.5 244.5C398.159 235.52 400.826 226.52 403.5 217.5C404.222 217.082 404.722 216.416 405 215.5C408.937 224.913 412.103 234.579 414.5 244.5C408.167 244.5 401.833 244.5 395.5 244.5Z" fill="#0F0E0D"/>
<path fill-rule="evenodd" clip-rule="evenodd" d="M395.5 244.5C401.833 244.5 408.167 244.5 414.5 244.5C412.103 234.579 408.937 224.913 405 215.5C404.722 216.416 404.222 217.082 403.5 217.5C405.599 212.762 406.599 207.762 406.5 202.5C408.492 202.328 410.158 202.995 411.5 204.5C415.961 219.216 420.627 233.883 425.5 248.5C425.167 248.833 424.833 249.167 424.5 249.5C422.972 248.139 421.305 246.972 419.5 246C411.323 245.829 403.323 245.329 395.5 244.5Z" fill="#E2DEC5"/>
<path fill-rule="evenodd" clip-rule="evenodd" d="M503.5 198.5C507.702 198.183 511.702 198.517 515.5 199.5C511.833 199.5 508.167 199.5 504.5 199.5C504.5 221.833 504.5 244.167 504.5 266.5C503.503 244.006 503.169 221.339 503.5 198.5Z" fill="#7E7E7B"/>
<path fill-rule="evenodd" clip-rule="evenodd" d="M198.5 245.5C198.737 244.209 198.404 243.209 197.5 242.5C194.921 233.083 191.588 224.083 187.5 215.5C188.702 211.286 189.369 206.952 189.5 202.5C192.48 202.241 194.313 203.574 195 206.5C198.73 219.357 203.063 232.023 208 244.5C208.798 246.259 208.631 247.926 207.5 249.5C205.102 246.801 202.102 245.467 198.5 245.5Z" fill="#E6E1C8"/>
<path fill-rule="evenodd" clip-rule="evenodd" d="M179.5 162.5C165.976 202.561 152.143 242.561 138 282.5C138.595 293.931 144.762 298.264 156.5 295.5C156.232 297.099 156.566 298.432 157.5 299.5C154.366 302.491 150.532 303.824 146 303.5C133.684 301.882 128.351 294.882 130 282.5C142.136 246.425 154.469 210.425 167 174.5C169.409 168.59 173.575 164.59 179.5 162.5Z" fill="#E3DEC5"/>
<path fill-rule="evenodd" clip-rule="evenodd" d="M480.5 165.5C478.73 167.113 477.564 169.113 477 171.5C476.333 210.5 476.333 249.5 477 288.5C478.141 290.609 479.641 292.442 481.5 294C497.5 294.667 513.5 294.667 529.5 294C532.893 293.202 536.226 292.202 539.5 291C543.987 289.397 548.154 287.23 552 284.5C552.14 286.256 551.64 287.922 550.5 289.5C550.624 290.107 550.957 290.44 551.5 290.5C542.869 297.64 532.869 301.807 521.5 303C507.5 303.667 493.5 303.667 479.5 303C473.836 300.668 470.336 296.501 469 290.5C468.333 252.5 468.333 214.5 469 176.5C471.077 170.921 474.91 167.255 480.5 165.5Z" fill="#E4DFC3"/>
<path fill-rule="evenodd" clip-rule="evenodd" d="M607.5 220.5C612.363 220.181 617.03 220.514 621.5 221.5C620.505 232.988 620.172 244.655 620.5 256.5C617.251 254.972 613.918 253.639 610.5 252.5C610.389 251.883 610.056 251.383 609.5 251C606.518 250.502 603.518 250.335 600.5 250.5C601.96 242.308 602.294 234.141 601.5 226C603.428 223.909 605.428 222.076 607.5 220.5Z" fill="#A75318"/>
<path fill-rule="evenodd" clip-rule="evenodd" d="M621.5 221.5C622.966 222.347 623.8 223.68 624 225.5C624.832 236.848 624.666 248.181 623.5 259.5C622.145 258.812 621.145 257.812 620.5 256.5C620.172 244.655 620.505 232.988 621.5 221.5Z" fill="#BD6D30"/>
<path fill-rule="evenodd" clip-rule="evenodd" d="M607.5 220.5C605.428 222.076 603.428 223.909 601.5 226C602.294 234.141 601.96 242.308 600.5 250.5C603.518 250.335 606.518 250.502 609.5 251C610.056 251.383 610.389 251.883 610.5 252.5C604.855 251.284 599.188 251.284 593.5 252.5C595.049 243.205 596.382 233.871 597.5 224.5C600.648 222.565 603.981 221.232 607.5 220.5Z" fill="#7E3C0F"/>
<path fill-rule="evenodd" clip-rule="evenodd" d="M197.5 242.5C198.404 243.209 198.737 244.209 198.5 245.5C191.8 245.83 185.134 245.497 178.5 244.5C178.624 243.893 178.957 243.56 179.5 243.5C182.314 244.165 185.314 244.498 188.5 244.5C191.913 244.483 194.913 243.816 197.5 242.5Z" fill="#7F7F7C"/>
<path fill-rule="evenodd" clip-rule="evenodd" d="M813.5 248.5C811.572 250.474 809.239 251.974 806.5 253C794.171 253.5 781.838 253.667 769.5 253.5C769.5 257.833 769.5 262.167 769.5 266.5C768.514 262.03 768.181 257.363 768.5 252.5C766.876 252.64 765.71 251.973 765 250.5C764.505 248.527 764.338 246.527 764.5 244.5C780.535 244.788 796.535 244.455 812.5 243.5C812.216 245.415 812.549 247.081 813.5 248.5Z" fill="#D9D5C0"/>
<path fill-rule="evenodd" clip-rule="evenodd" d="M634.5 197.5C636.813 199.374 639.146 201.374 641.5 203.5C640.518 218.67 646.851 229.503 660.5 236C669.215 239.008 677.881 242.008 686.5 245C688.699 246.697 691.032 248.197 693.5 249.5C694.386 250.325 694.719 251.325 694.5 252.5C695.5 252.5 696.5 252.5 697.5 252.5C697.827 254.488 698.16 256.488 698.5 258.5C698.299 263.606 695.632 265.939 690.5 265.5C691.295 261.406 689.962 258.239 686.5 256C674.669 251.39 663.003 246.39 651.5 241C635.578 230.347 629.911 215.847 634.5 197.5Z" fill="#E3DFC4"/>
<path fill-rule="evenodd" clip-rule="evenodd" d="M400.5 162.5C397.267 163.895 394.767 166.228 393 169.5C390.489 177.375 388.156 185.375 386 193.5C375.939 222.617 365.606 251.617 355 280.5C354.333 282.833 354.333 285.167 355 287.5C356.694 289.24 357.861 291.24 358.5 293.5C363.067 294.789 367.734 295.789 372.5 296.5C372.76 297.905 373.093 299.238 373.5 300.5C362.062 306.591 353.228 303.925 347 292.5C345.682 289.594 345.348 286.594 346 283.5C358.67 246.822 371.337 210.156 384 173.5C387.533 166.787 393.033 163.12 400.5 162.5Z" fill="#E4DEC5"/>
<path fill-rule="evenodd" clip-rule="evenodd" d="M122.5 246.5C102.615 264.474 80.282 268.141 55.5 257.5C55.158 256.662 54.492 256.328 53.5 256.5C53.335 252.818 53.501 249.152 54 245.5C57.59 248.046 61.423 250.213 65.5 252C77.931 255.304 90.265 255.304 102.5 252C105.977 250.2 109.644 248.867 113.5 248C117.012 245.743 120.346 243.243 123.5 240.5C123.833 241 124.167 241.5 124.5 242C123.586 243.406 122.92 244.906 122.5 246.5Z" fill="#E3DFC9"/>
<path fill-rule="evenodd" clip-rule="evenodd" d="M336.5 251.5C332.881 254.65 328.881 257.316 324.5 259.5C323.513 257.527 322.513 255.527 321.5 253.5C326.1 248.496 331.1 247.829 336.5 251.5Z" fill="#EDE5CE"/>
<path fill-rule="evenodd" clip-rule="evenodd" d="M607.5 256.5C614.28 256.804 619.446 259.804 623 265.5C622.972 274.335 621.639 283.001 619 291.5C613.227 285.535 606.393 281.535 598.5 279.5C597.432 278.566 596.099 278.232 594.5 278.5C595.952 271.12 597.619 263.787 599.5 256.5C602.167 256.5 604.833 256.5 607.5 256.5Z" fill="#A7561C"/>
<path fill-rule="evenodd" clip-rule="evenodd" d="M607.5 256.5C604.833 256.5 602.167 256.5 599.5 256.5C597.619 263.787 595.952 271.12 594.5 278.5C596.099 278.232 597.432 278.566 598.5 279.5C594.76 279.241 591.094 279.574 587.5 280.5C587.167 279.833 586.833 279.167 586.5 278.5C588.029 271.747 589.862 265.08 592 258.5C597.037 255.665 602.203 254.998 607.5 256.5Z" fill="#7D3E11"/>
<path fill-rule="evenodd" clip-rule="evenodd" d="M286.5 270.5C287.492 270.328 288.158 270.662 288.5 271.5C287.833 277.5 287.167 283.5 286.5 289.5C286.5 283.167 286.5 276.833 286.5 270.5Z" fill="#60605F"/>
<path fill-rule="evenodd" clip-rule="evenodd" d="M53.5 256.5C54.492 256.328 55.158 256.662 55.5 257.5C54.833 272.167 54.167 286.833 53.5 301.5C53.5 286.5 53.5 271.5 53.5 256.5Z" fill="#B9B9B7"/>
<path fill-rule="evenodd" clip-rule="evenodd" d="M336.5 299.5C334.776 301.689 332.442 302.856 329.5 303C322.135 304.948 315.968 303.115 311 297.5C303.635 288.641 296.135 279.974 288.5 271.5C288.158 270.662 287.492 270.328 286.5 270.5C286.5 267.167 286.5 263.833 286.5 260.5C288.655 260.372 290.655 260.872 292.5 262C302.062 272.449 311.395 283.116 320.5 294C325.051 295.215 329.718 295.881 334.5 296C335.085 297.302 335.751 298.469 336.5 299.5Z" fill="#E5E0C8"/>
<path fill-rule="evenodd" clip-rule="evenodd" d="M597.5 284.5C605.005 285.336 611.172 288.67 616 294.5C616.833 297.171 616.333 299.504 614.5 301.5C603.162 301.667 591.828 301.5 580.5 301C588.612 300.437 596.612 300.103 604.5 300C605.451 299.282 605.617 298.449 605 297.5C601.451 293.772 597.951 289.939 594.5 286C593.5 285.667 592.5 285.333 591.5 285C593.473 284.505 595.473 284.338 597.5 284.5Z" fill="#A65216"/>
<path fill-rule="evenodd" clip-rule="evenodd" d="M597.5 284.5C595.473 284.338 593.473 284.505 591.5 285C592.5 285.333 593.5 285.667 594.5 286C597.951 289.939 601.451 293.772 605 297.5C605.617 298.449 605.451 299.282 604.5 300C596.612 300.103 588.612 300.437 580.5 301C591.828 301.5 603.162 301.667 614.5 301.5C602.678 302.495 590.678 302.828 578.5 302.5C579.396 296.312 581.396 290.478 584.5 285C587.658 284.446 590.825 283.946 594 283.5C595.385 283.514 596.551 283.848 597.5 284.5Z" fill="#8B4513"/>
<path fill-rule="evenodd" clip-rule="evenodd" d="M243.5 297.5C238.041 303.146 231.375 304.98 223.5 303C221.246 301.623 219.08 300.123 217 298.5C214.301 292.732 211.801 286.898 209.5 281C195.425 280.186 181.425 280.352 167.5 281.5C165.877 278.785 165.21 275.785 165.5 272.5C182.503 272.333 199.503 272.5 216.5 273C218.074 277.459 219.574 281.959 221 286.5C222.211 289.759 224.044 292.592 226.5 295C232.339 295.048 238.006 295.881 243.5 297.5Z" fill="#E4DFC6"/>
<path fill-rule="evenodd" clip-rule="evenodd" d="M742.5 168.5C741.357 207.811 741.19 247.144 742 286.5C742.672 289.841 744.506 292.341 747.5 294C760 294.167 772.5 294.333 785 294.5C798.261 294.463 811.428 293.797 824.5 292.5C826.056 293.547 827.723 294.214 829.5 294.5C826.411 298.551 822.411 301.384 817.5 303C793.833 303.667 770.167 303.667 746.5 303C740.333 300.833 736.167 296.667 734 290.5C733.333 252.5 733.333 214.5 734 176.5C736.068 172.93 738.901 170.263 742.5 168.5Z" fill="#E2DDC3"/>
<path fill-rule="evenodd" clip-rule="evenodd" d="M460.5 297.5C454.692 303.192 447.692 305.026 439.5 303C436 300.833 433.167 298 431 294.5C429.389 289.835 427.889 285.168 426.5 280.5C411.923 279.877 397.589 280.544 383.5 282.5C382.949 279.193 382.616 275.86 382.5 272.5C399.5 272.5 416.5 272.5 433.5 272.5C434.418 277.006 435.418 281.506 436.5 286C439.853 295.01 446.187 298.177 455.5 295.5C457.075 296.456 458.742 297.123 460.5 297.5Z" fill="#E4E0C8"/>
<path fill-rule="evenodd" clip-rule="evenodd" d="M642.5 253.5C640.582 255.549 639.082 257.883 638 260.5C636.337 272.17 640.17 281.67 649.5 289C666.679 299.026 684.512 300.192 703 292.5C703.198 294.382 703.698 296.048 704.5 297.5C684.272 309.935 664.272 309.435 644.5 296C637.711 290.888 632.877 284.388 630 276.5C627.4 265.027 631.567 257.36 642.5 253.5Z" fill="#E3DDC5"/>
</svg>
